<svg width="1000" height="1080" xmlns="http://www.w3.org/2000/svg" t="1626764977164" version="1.1" p-id="4404" class="mini-header__logo">
 <g id="Layer_1">
  <title _mstHash="1">Layer 1</title>
  <g id="svg_22">
   <text fill="#ffffff" stroke-width="0" x="393.64133" y="84.85048" id="svg_4" font-size="24" font-family="'Catamaran'" text-anchor="start" xml:space="preserve" stroke="#ffffff" _mstHash="3" transform="matrix(2.17032 0 0 2.17032 -452.795 -104.767)">WiKi</text>
   <g id="svg_19">
    <text fill="#ffffff" x="140" y="69.00413" id="svg_2" font-size="24" font-family="'Catamaran'" text-anchor="start" xml:space="preserve" stroke-width="0" font-weight="bold" stroke="#ffffff" transform="matrix(2.3657 0 0 2.3657 -143.275 -82.7093)" _mstHash="2">motion</text>
    <text fill="#ffffff" stroke-width="0" x="16.49444" y="95.29667" id="svg_6" font-size="18" font-family="'Catamaran'" text-anchor="start" xml:space="preserve" font-weight="bold" stroke="#ffffff" transform="matrix(3.24545 0 0 3.24545 -52.0504 -228.534)" _mstHash="4">Alight</text>
   </g>
   <g id="svg_20">
    <path fill="#00ff7f" stroke="#00ff7f" d="m316.79324,29.80479c0,0 32.45869,-43.36563 88.7457,-25.47914c54.38002,27.09726 49.76541,65.93215 50.48536,70.22643c1.54542,13.18143 -9.12927,10.59243 -9.3851,3.55986c-5.96189,-12.29772 2.83992,-40.8638 -47.57274,-67.63743c-44.4092,-17.56286 -82.27322,19.33028 -82.27322,19.33028z" id="svg_10"/>
    <path fill="#00ff7f" stroke="#00ff7f" opacity="NaN" d="m372.31004,19.7821c0,0 48.53193,-6.73575 65.80309,45.94126c7.08117,33.50603 -17.44386,58.37649 -17.57804,58.36515c-7.81055,2.60201 -7.81055,-3.44289 -7.29242,-5.51543c4.14508,-5.00863 19.5164,-23.66148 17.13697,-47.67971c-14.89172,-54.39279 -58.0696,-51.11127 -58.0696,-51.11127z" id="svg_12"/>
    <path fill="#00ff7f" stroke="#00ff7f" opacity="NaN" d="m403.55163,46.85944c0,0 22.79792,12.60794 16.2926,42.16864c-6.79347,34.16985 -44.44458,36.58781 -44.44458,36.58781c-8.80829,-3.45423 -2.59067,-8.80829 -0.63313,-9.29939c5.29634,-0.89059 21.35851,1.70008 35.17543,-20.40699c3.28152,-8.11744 11.91709,-28.15198 -6.39033,-49.05007l0.00001,0z" id="svg_14"/>
    <path fill="#00ff7f" stroke="#00ff7f" opacity="NaN" d="m400.96096,77.42938c0,0 -1.89983,20.89809 -22.79792,22.97063c-13.29879,-1.89983 -8.15434,-2.57443 -17.27115,-6.56304c-9.67184,-3.10881 -7.77202,4.83592 -7.25388,6.56304c1.72712,1.38169 7.94473,8.29015 20.55267,8.11744c32.46976,-2.76338 26.77028,-31.08807 26.77028,-31.08807z" id="svg_15"/>
   </g>
  </g>
 </g>

</svg>